<?xml version="1.0" encoding="UTF-8" standalone="no"?>

<svg
   xmlns:dc="http://purl.org/dc/elements/1.1/"
   xmlns:svg="http://www.w3.org/2000/svg"
   xmlns="http://www.w3.org/2000/svg"
   version="1.1"
   id="svg64"
   xml:space="preserve"
   width="440.94666"
   height="519.77332"
   viewBox="0 0 440.94666 519.77332"
   style="shape-rendering:crispEdges"><defs
     id="defs68" /><g
     id="g72"
     transform="matrix(1.3333333,0,0,-1.3333333,0,519.77333)"><g
       id="g74"
       transform="scale(0.1)"><path
         d="m 1196.91,1582.06 c 194.03,-147.55 436.15,-235.14 698.72,-235.14 638.12,0 1155.43,517.31 1155.43,1155.43 0,638.13 -517.31,1155.44 -1155.43,1155.44 -323.86,0 -616.6,-133.25 -826.39,-347.91"
         style="fill:none;stroke:#393536;stroke-width:110;stroke-linecap:round;stroke-linejoin:round;stroke-miterlimit:10;stroke-dasharray:none;stroke-opacity:1"
         id="path76"
          /><path
         d="m 2426.78,3299.61 c 9.07,33.86 -11.03,68.66 -44.88,77.74 -33.86,9.07 -68.66,-11.02 -77.74,-44.88 -9.07,-33.86 11.03,-68.66 44.89,-77.73 33.85,-9.08 68.65,11.01 77.73,44.87"
         style="fill:#393536;fill-opacity:1;fill-rule:nonzero;stroke:none"
         id="path78"
          /><path
         d="m 2892.67,2471.47 c 9.07,33.85 -11.02,68.65 -44.87,77.73 -33.86,9.07 -68.67,-11.02 -77.74,-44.88 -9.08,-33.86 11.02,-68.66 44.87,-77.73 33.86,-9.07 68.67,11.02 77.74,44.88"
         style="fill:#393536;fill-opacity:1;fill-rule:nonzero;stroke:none"
         id="path80"
          /><path
         d="m 2768.41,2007.82 c 9.07,33.86 -11.01,68.66 -44.87,77.74 -33.86,9.08 -68.66,-11.02 -77.74,-44.88 -9.08,-33.85 11.02,-68.65 44.88,-77.73 33.85,-9.07 68.66,11.02 77.73,44.87"
         style="fill:#393536;fill-opacity:1;fill-rule:nonzero;stroke:none"
         id="path82"
          /><path
         d="m 2426.69,1672.19 c 9.07,33.86 -11.01,68.66 -44.87,77.73 -33.87,9.07 -68.66,-11.01 -77.74,-44.87 -9.08,-33.86 11.02,-68.66 44.88,-77.74 33.86,-9.07 68.65,11.02 77.73,44.88"
         style="fill:#393536;fill-opacity:1;fill-rule:nonzero;stroke:none"
         id="path84"
          /><path
         d="m 1956.89,1546.33 c 9.07,33.86 -11.02,68.66 -44.88,77.73 -33.85,9.08 -68.66,-11.01 -77.73,-44.87 -9.08,-33.86 11.02,-68.66 44.87,-77.73 33.86,-9.08 68.67,11.01 77.74,44.87"
         style="fill:#393536;fill-opacity:1;fill-rule:nonzero;stroke:none"
         id="path86"
          /><path
         d="m 1364.57,3332.52 c -9.07,-33.85 11.02,-68.66 44.88,-77.73 33.85,-9.08 68.66,11.01 77.73,44.87 9.08,33.86 -11.02,68.67 -44.87,77.74 -33.86,9.07 -68.66,-11.02 -77.74,-44.88"
         style="fill:#393536;fill-opacity:1;fill-rule:nonzero;stroke:none"
         id="path88"
          /><path
         d="m 1834.38,3458.38 c -9.07,-33.86 11.01,-68.66 44.87,-77.74 33.86,-9.07 68.66,11.02 77.74,44.88 9.07,33.86 -11.02,68.66 -44.88,77.73 -33.86,9.08 -68.66,-11.01 -77.73,-44.87"
         style="fill:#393536;fill-opacity:1;fill-rule:nonzero;stroke:none"
         id="path90"
          /><path
         d="m 1047.51,3287.03 c -3.35,-3.62 -6.68,-7.26 -9.98,-10.92"
         style="fill:none;stroke:#393536;stroke-width:120;stroke-linecap:round;stroke-linejoin:round;stroke-miterlimit:10;stroke-dasharray:none;stroke-opacity:1"
         id="path92"
          /><path
         d="m 1069.24,3309.88 c -7.35,-7.52 -14.59,-15.13 -21.73,-22.85"
         style="fill:none;stroke:#393536;stroke-width:120;stroke-linecap:round;stroke-linejoin:round;stroke-miterlimit:10;stroke-dasharray:none;stroke-opacity:1"
         id="path94"
          /><path
         d="M 1934.23,2265.15 C 1796.25,1945.29 1520.14,1698.7 1182.48,1597.86 l -1,-0.59 c -79.43,-96.51 -124.5,-220.06 -124.5,-354.82 0,-262.239 180.56,-482.22 424.12,-542.641 C 1417.4,515.648 1302.6,355.41 1153.8,235.738 925.363,510.07 787.906,862.809 787.906,1247.71 c 0,255.88 60.813,497.53 168.653,711.42"
         style="fill:none;stroke:#393536;stroke-width:120;stroke-linecap:round;stroke-linejoin:round;stroke-miterlimit:10;stroke-dasharray:none;stroke-opacity:1"
         id="path96"
          /><path
         d="m 999.555,2038.65 c -15.067,-26.04 -29.407,-52.56 -42.996,-79.52"
         style="fill:none;stroke:#393536;stroke-width:120;stroke-linecap:round;stroke-linejoin:round;stroke-miterlimit:10;stroke-dasharray:none;stroke-opacity:1"
         id="path98"
          /><path
         d="m 1462,2543.61 c 70.27,49.36 144.55,93 221.89,130.31 55.89,26.95 114.16,52.43 177.2,58.94 62.96,6.51 129.04,-13.52 196.88,-20.85 25.17,-2.72 50.87,-1.69 75.99,1.05 52.78,5.76 104.28,20.56 153.95,38.91 140.65,51.97 271.79,129.57 400.73,205.08 8.92,5.22 17.83,10.45 26.73,15.7"
         style="fill:none;stroke:#393536;stroke-width:120;stroke-linecap:round;stroke-linejoin:round;stroke-miterlimit:10;stroke-dasharray:none;stroke-opacity:1"
         id="path100"
          /><path
         d="m 689.426,3164.17 c 24.027,137.51 76.707,265.16 151.652,376.59"
         style="fill:none;stroke:#393536;stroke-width:120;stroke-linecap:round;stroke-linejoin:round;stroke-miterlimit:10;stroke-dasharray:none;stroke-opacity:1"
         id="path102"
          /><path
         d="m 1498.49,2005.92 c -60.6,-11.72 -123.18,-17.85 -187.21,-17.85 -108.97,0 -213.8,17.77 -311.725,50.58 -388.731,130.26 -668.844,497.41 -668.844,929.99 0,146.11 31.957,284.75 89.258,409.32 l 2.668,0.51 1039.363,-834.86 113.42,-91.09"
         style="fill:none;stroke:#393536;stroke-width:120;stroke-linecap:round;stroke-linejoin:round;stroke-miterlimit:10;stroke-dasharray:none;stroke-opacity:1"
         id="path104"
          /><path
         d="M 841.082,3540.76 1533.76,2591.15"
         style="fill:none;stroke:#393536;stroke-width:120;stroke-linecap:round;stroke-linejoin:round;stroke-miterlimit:10;stroke-dasharray:none;stroke-opacity:1"
         id="path106"
          /><path
         d="m 2707.1,2968.01 c -133.04,-76.35 -268.85,-153.15 -388.34,-250.05 -42.91,-34.8 -84.81,-73.88 -118.25,-118.85 -43.66,-58.74 -57.77,-132.06 -89.47,-196.85 -32.67,-66.76 -89.53,-117.17 -162.9,-134.2 -17.21,-4 -34.86,-6.02 -52.51,-6.02 -36.8,0 -71.67,8.28 -102.84,23.07"
         style="fill:none;stroke:#393536;stroke-width:120;stroke-linecap:round;stroke-linejoin:round;stroke-miterlimit:10;stroke-dasharray:none;stroke-opacity:1"
         id="path108"
          /><path
         d="m 1044.65,1586.39 c 46.37,-3.66 97.03,-0.82 137.83,11.47"
         style="fill:none;stroke:#393536;stroke-width:120;stroke-linecap:round;stroke-linejoin:round;stroke-miterlimit:10;stroke-dasharray:none;stroke-opacity:1"
         id="path110"
          /></g></g></svg>
